<svg xmlns="http://www.w3.org/2000/svg" viewBox="0.0213013 0.000499725 469.2 532.8">
	<path d="M 157.1962 53.333 v 197.1826 s 69.4799 0 106.665 -2.8225 c 29.2426 -5.1199 34.6251 -7.9424 40.0076 -37.1851 l 10.765 -42.8301 h 31.8026 l -5.3825 93.6026 l 2.8225 95.9 h -32.0651 l -7.9424 -37.4476 c -7.9424 -26.6498 -18.7074 -32.0651 -40.0076 -34.6251 c -26.6498 -2.8225 -106.665 -2.8225 -106.665 -2.8225 V 447.6653 c 0 31.8026 16.1474 45.3901 53.3325 45.3901 h 112.0475 c 34.6251 0 69.2174 -2.8225 90.7801 -53.3325 l 28.9801 -64.0975 h 26.9124 c -2.8225 13.3249 -16.1474 130.7549 -18.7074 157.175 c 0 0 -101.2825 -2.56 -143.8501 -2.56 H 114.6287 l -114.6074 2.56 v -28.9801 l 37.1851 -8.205 c 26.9124 -5.3825 34.8548 -13.3249 34.8548 -34.6251 c 0 0 2.8225 -72.0399 2.8225 -192.0626 c 0 -119.7274 -2.8225 -191.8001 -2.8225 -191.8001 c 0 -23.8601 -7.9424 -29.2426 -34.8548 -34.6251 l -37.1851 -7.8768 V 5.383 l 112.0475 2.2974 h 213.33 c 42.5675 0 114.3449 -7.6799 114.3449 -7.6799 s -2.56 45.1275 -5.3825 151.7925 h -29.2426 l -10.765 -37.4476 c -10.5024 -47.95 -26.4201 -71.8102 -55.8925 -71.8102 H 170.7837 c -13.5875 0.0328 -13.5875 2.5928 -13.5875 10.7978 z" fill="rgba(244, 88, 0, 1)"/>
</svg>