<svg width="24" height="24" viewBox="0 0 20 18" fill="none" xmlns="http://www.w3.org/2000/svg">
    <path
        d="M 1.7612 15.6769 L 2.6432 17.2115 C 2.8265 17.5346 3.0899 17.7884 3.3992 17.973 L 6.5493 12.4807 H 0.2491 C 0.2491 12.8384 0.3408 13.1961 0.5241 13.5192 L 1.7612 15.6769 Z"
        fill="#0066DA">
    </path>
    <path
        d="M 10.2491 6.0192 L 7.0991 0.5269 C 6.7898 0.7115 6.5264 0.9653 6.3431 1.2884 L 0.5241 11.4422 C 0.3441 11.7583 0.2494 12.1163 0.2491 12.4807 H 6.5493 L 10.2491 6.0192 Z"
        fill="#00AC47">
    </path>
    <path
        d="M 17.0992 17.973 C 17.4085 17.7884 17.672 17.5346 17.8553 17.2115 L 18.2218 16.5769 L 19.9744 13.5192 C 20.1577 13.1961 20.2493 12.8384 20.2493 12.4807 H 13.9487 L 15.2894 15.1346 L 17.0992 17.973 Z"
        fill="#EA4335">
    </path>
    <path
        d="M 10.2481 6.0192 L 13.3982 0.5269 C 13.0889 0.3423 12.7338 0.25 12.3673 0.25 H 8.129 C 7.7625 0.25 7.4074 0.3538 7.0981 0.5269 L 10.2481 6.0192 Z"
        fill="#00832D">
    </path>
    <path
        d="M 13.9484 12.4807 H 6.5486 L 3.3986 17.973 C 3.7078 18.1576 4.0629 18.2499 4.4295 18.2499 H 16.0675 C 16.4341 18.2499 16.7892 18.1461 17.0984 17.973 L 13.9484 12.4807 Z"
        fill="#2684FC">
    </path>
    <path
        d="M 17.0648 6.3653 L 14.1553 1.2884 C 13.972 0.9653 13.7085 0.7115 13.3993 0.5269 L 10.2492 6.0192 L 13.9491 12.4807 H 20.2378 C 20.2378 12.123 20.1461 11.7653 19.9628 11.4422 L 17.0648 6.3653 Z"
        fill="#FFBA00">
    </path>
</svg>